<svg id="NavigationLeft_Icon_Search_Black" data-name="NavigationLeft/Icon Search Black" xmlns="http://www.w3.org/2000/svg" width="17.657" height="17.657" viewBox="0 0 17.657 17.657">
  <g id="Icon_Search_Black" data-name="Icon Search Black">
    <g id="Combined_Shape" data-name="Combined Shape" fill="none" stroke-miterlimit="10">
      <path d="M15.95,17.364l-3.9-3.9a7.5,7.5,0,1,1,1.414-1.414l3.9,3.9a1,1,0,1,1-1.414,1.414Z" stroke="none"/>
      <path d="M 7.499700546264648 13.00030517578125 C 8.717530250549316 13.00030517578125 9.870960235595703 12.61088562011719 10.835280418396 11.87413501739502 L 11.42419528961182 11.4242000579834 L 11.87413024902344 10.83528518676758 C 12.61088085174561 9.870965003967285 13.00030040740967 8.717535018920898 13.00030040740967 7.499695301055908 C 13.00030040740967 4.467155456542969 10.53274059295654 2.00000524520874 7.499700546264648 2.00000524520874 C 4.467160701751709 2.00000524520874 2.000000476837158 4.467155456542969 2.000000476837158 7.499695301055908 C 2.000000476837158 10.53274536132812 4.467160701751709 13.00030517578125 7.499700546264648 13.00030517578125 M 16.6567497253418 17.65665435791016 C 16.40092086791992 17.65665435791016 16.14509963989258 17.55900573730469 15.94980049133301 17.36370468139648 L 12.04948043823242 13.46338558197021 C 10.78759098052979 14.42747497558594 9.210480690002441 15.00030517578125 7.499700546264648 15.00030517578125 C 3.357900619506836 15.00030517578125 5.355834673537174e-07 11.64240550994873 5.355834673537174e-07 7.499695301055908 C 5.355834673537174e-07 3.357905387878418 3.357900619506836 5.271606369205983e-06 7.499700546264648 5.271606369205983e-06 C 11.64240074157715 5.271606369205983e-06 15.00030040740967 3.357905387878418 15.00030040740967 7.499695301055908 C 15.00030040740967 9.210485458374023 14.42748069763184 10.78758525848389 13.46338081359863 12.049485206604 L 17.36370086669922 15.94980525970459 C 17.75430107116699 16.34040451049805 17.75430107116699 16.97310447692871 17.36370086669922 17.36370468139648 C 17.16839981079102 17.55900573730469 16.91257095336914 17.65665435791016 16.6567497253418 17.65665435791016 Z" stroke="none" fill="#fff"/>
    </g>
  </g>
</svg>
